<?xml version="1.0" encoding="UTF-8" standalone="no"?>
<svg
   xmlns="http://www.w3.org/2000/svg"
   version="1.1"
   id="svg2"
   width="64"
   height="64"
   viewBox="0 0 16 16">
  <g
     id="layer1">
    <path
       style="fill:none;stroke:#000000;stroke-width:1px;stroke-linecap:butt;stroke-linejoin:miter;stroke-opacity:1"
       d="M 1.8099907,0.7212821 C 1.7917492,0.83304004 0.10003263,7.7136185 0.10003263,7.7136185 l 2.06917047,7.9605305 0.00676,-0.0025 -1.54960902,-7.9188453 z"
       id="path9" />
    <path
       style="fill:none;stroke:#000000;stroke-width:1px;stroke-linecap:butt;stroke-linejoin:miter;stroke-opacity:1"
       d="M 14.130768,0.70985455 15.99049,7.708406 13.822254,15.658227 15.422589,7.7549935 Z"
       id="path11" />
    <path
       style="fill:none;stroke:#000000;stroke-width:1px;stroke-linecap:butt;stroke-linejoin:miter;stroke-opacity:1"
       d="m 3.015779,2.0122042 0.039716,5.2734358 0.4968422,0.00415 0.044823,-2.6093688 2.9799542,0.026231 0.055958,2.564736 0.566396,0.00341 L 7.1805466,2.0383218 6.6698557,2.0218098 6.5603039,4.2723155 3.6125465,4.3012735 3.522891,2.0480181 Z"
       id="path13" />
    <path
       style="fill:none;stroke:#000000;stroke-width:1px;stroke-linecap:butt;stroke-linejoin:miter;stroke-opacity:1"
       d="m 9.0028361,1.9607829 -0.037664,0.8270566 1.5738509,0.1075964 0.179111,4.3832769 0.638981,-0.00558 0.167219,-4.3976389 1.805521,-0.1063586 0.0068,-0.775985 z"
       id="path15" />
    <path
       style="fill:none;stroke:#000000;stroke-width:1px;stroke-linecap:butt;stroke-linejoin:miter;stroke-opacity:1"
       d="m 2.9424421,14.367624 -0.07844,-6.0158892 0.9148417,0.010326 1.3192287,1.9085312 1.3979629,-1.8785007 0.8402407,0.035597 -0.039407,5.9688207 -0.2182743,-0.0508 -0.6014244,0.0141 -0.015744,-4.344445 -1.3549668,0.802333 -1.3117744,-0.781482 -0.1447446,4.34374 z"
       id="path17" />
    <path
       style="fill:none;stroke:#000000;stroke-width:1px;stroke-linecap:butt;stroke-linejoin:miter;stroke-opacity:1"
       d="m 9.0058423,8.267091 0.019947,6.052033 4.3581927,-0.211368 -0.03629,-0.394881 L 9.9180634,13.515242 9.6494141,8.1456664 Z"
       id="path19" />
  </g>
</svg>
