<?xml version="1.0" encoding="utf-8"?>
<!-- Generator: Adobe Illustrator 28.2.0, SVG Export Plug-In . SVG Version: 6.00 Build 0)  -->
<svg version="1.1" id="Ebene_1" xmlns="http://www.w3.org/2000/svg" xmlns:xlink="http://www.w3.org/1999/xlink" x="0px" y="0px"
	 viewBox="0 0 256 256" style="enable-background:new 0 0 256 256;" xml:space="preserve">
<path d="M83.1,186.7h10.5l10.6-42.2v42.2h10.1V133H98l-9.7,36.7L78.7,133H62.4v53.7h10.1v-42.2L83.1,186.7z M156.3,80v-9.1h-42.6V80
	h15.9v44.6h10.9V80H156.3z M72.4,92V71H61.6v53.7h10.9v-23.4h21.2v23.4h10.9V71H93.6v21.2L72.4,92L72.4,92z M165,177.7h-26.9v-44.2
	h-11v53.2h37.7v-9H165z M198.7,65.8h8.9l-15.5,117.8h-8.7L198.7,65.8z M256,134.8l-42.4,34v-22.1l29.5-21.4l-29.5-21.2V82.4
	l42.4,33.8V134.8z M0,116.1l42.4-33.8v22.1l-29.5,20.8l29.5,21.6v22L0,134.9C0,134.9,0,116.1,0,116.1z"/>
</svg>
