<?xml version="1.0" encoding="utf-8"?>
<!-- Generator: Adobe Illustrator 28.2.0, SVG Export Plug-In . SVG Version: 6.00 Build 0)  -->
<svg version="1.1" xmlns="http://www.w3.org/2000/svg" xmlns:xlink="http://www.w3.org/1999/xlink" x="0px" y="0px"
	 viewBox="0 0 256 256" style="enable-background:new 0 0 256 256;" xml:space="preserve">
<style type="text/css">
	.st0{display:none;}
</style>
<g id="Ebene_1">
	<path d="M196.4,69.8h11.2L188,187.6h-11L196.4,69.8z M256,134.8l-42.4,34v-22.1l29.5-21.4l-29.5-21.2V82.4l42.4,33.8V134.8z
		 M0,116.1l42.4-33.8v22.1l-29.5,20.8l29.5,21.6v22L0,134.9C0,134.9,0,116.1,0,116.1z"/>
	<g>
		<path d="M50.1,136.2h23.3l9,34.8l8.9-34.8h23.3v57.3h-14.5v-43.7l-11.2,43.7H75.8l-11.1-43.7v43.7H50.1V136.2z"/>
		<path d="M125.8,136.2h17.7v43.2h27.6v14.1h-45.3V136.2z"/>
	</g>
	<g>
		<path d="M50.3,61.3H68v20h19.3v-20h17.8v57.3H87.3V95.4H68v23.2H50.3V61.3z"/>
		<path d="M112.8,61.3h53.8v14.1h-18v43.1h-17.7V75.4h-18V61.3z"/>
	</g>
</g>
<g id="Ebene_2" class="st0">
</g>
</svg>
